<svg width="122" height="43" viewBox="0 0 122 43" fill="none" xmlns="http://www.w3.org/2000/svg">
<g clip-path="url(#clip0_257_598)">
<path d="M112.53 6.84876V14.1887H102.312L104.905 9.62539V6.84876H92.3535V9.62539L94.9467 14.1887H86.1023L78.0221 5.97955L75.4533 8.28939L81.2899 14.1807H76.754C76.8027 14.2209 76.8515 14.2612 76.9003 14.3094L77.1929 14.5992C77.3636 14.7762 77.9814 15.4121 78.2416 15.7259C78.331 15.8145 78.331 15.9593 78.2416 16.0398L76.7702 17.4724H121.504V6.84071H112.513L112.53 6.84876ZM98.6372 14.1887L96.6537 10.1405H100.621L98.6372 14.1887ZM118.334 14.1887H115.594V10.1405H118.334V14.1887ZM75.8598 14.3416L76.0467 14.1807H68.4299V6.84071H59.4392V14.1807H52.6108V17.4724H75.8354C75.4289 17.0941 75.0306 16.6998 74.6242 16.2732C74.3884 16.0398 74.3884 15.7259 74.5673 15.5489C75.2338 14.9131 75.6159 14.5348 75.8516 14.3336L75.8598 14.3416ZM65.2514 14.1887H62.512V10.1405H65.2514V14.1887Z" fill="#04595A"/>
<path d="M71.8525 4.33774V2.55908L52.6112 2.55908V4.33774L71.8525 4.33774Z" fill="#BCBCBC"/>
<path d="M109.758 4.33774V2.55908L85.6797 2.55908V4.33774L109.758 4.33774Z" fill="#BCBCBC"/>
<path d="M116.497 0.547103L116.22 2.65573L112.351 2.68793L112.14 4.34586H121.212L121.773 0.00787354L116.489 0.555152L116.497 0.547103ZM119.797 2.64769L117.871 2.63159L117.944 2.06017L119.903 1.84286L119.797 2.63964V2.64769Z" fill="#04595A"/>
<path d="M88.5244 41.1024V39.3238H64.6983V41.1024H88.5244Z" fill="#BCBCBC"/>
<path d="M122.008 41.1025V39.3238H106.563V41.1025H122.008Z" fill="#BCBCBC"/>
<path d="M67.3082 26.7525C67.5114 26.9537 67.8366 26.9537 68.0073 26.7847L69.6087 25.1992C69.6981 25.1107 69.6981 24.998 69.6412 24.9095C69.3811 24.5956 68.7389 23.9276 68.5601 23.7506L68.2674 23.4608C67.9179 23.1469 67.7146 23.0262 67.6252 23.1469L67.2188 23.493C66.983 23.6942 66.6091 24.0966 65.9344 24.7324C65.7556 24.9095 65.7556 25.2234 65.9913 25.4568C66.4303 25.9155 66.8692 26.3501 67.3082 26.7606V26.7525Z" fill="#04595A"/>
<path d="M85.5254 37.3759H76.8843V20.2172H80.4123L80.3554 34.0842H85.6311L85.4929 34.1969C85.2571 34.3981 84.8832 34.7764 84.2085 35.4122C84.0297 35.5892 84.0297 35.9031 84.2654 36.1365C84.68 36.5792 85.1027 36.9896 85.5173 37.3759H85.5254Z" fill="#04595A"/>
<path d="M88.85 37.3756H86.3706L87.5981 36.1603C88.0127 36.5708 88.4354 36.9893 88.85 37.3756Z" fill="#04595A"/>
<path d="M88.964 34.0762L88.8258 34.1888C88.5901 34.39 88.273 34.7361 87.6552 35.3156C87.3626 35.0017 86.9561 34.5912 86.8423 34.4464L86.5497 34.1566C86.5497 34.1566 86.4847 34.1003 86.4521 34.0681H88.964V34.0762Z" fill="#04595A"/>
<path d="M97.0764 26.7361V37.3678H89.6953L91.2154 35.895C91.3049 35.8065 91.3049 35.6616 91.2154 35.5731C90.9553 35.2592 90.3375 34.6234 90.1668 34.4463L89.8742 34.1566C89.8742 34.1566 89.8091 34.1002 89.7766 34.0681H93.5159V26.7281H97.0764V26.7361Z" fill="#04595A"/>
<path d="M112.522 34.0761H111.205H109.75H107.238H105.896H105.254V26.9695H101.661V38.8246H98.1333V42.2933H105.254V37.3678H105.896H107.238H109.75H111.205H116.082V20.3217H112.522V34.0761Z" fill="#04595A"/>
<path d="M121.423 20.3217H119.049C118.731 20.3217 118.472 20.5776 118.472 20.8931V36.7964C118.472 37.112 118.731 37.3678 119.049 37.3678H121.423C121.742 37.3678 122 37.112 122 36.7964V20.8931C122 20.5776 121.742 20.3217 121.423 20.3217Z" fill="#04595A"/>
<path d="M83.2246 20.829L82.9482 22.9457L94.8979 22.8491L94.7434 24.0483L96.7757 24.0241L97.2065 20.7807L83.2246 20.829Z" fill="#BCBCBC"/>
<path d="M62.9102 26.6801H59.5286V37.8671H56.09V32.0402H52.5864V41.1588H62.9102V37.4003H74.4453V28.1932H62.9102V26.6801ZM71.0636 31.6941V34.0845H62.9184V31.6941H71.0636Z" fill="#04595A"/>
<path d="M3.47121 4.84506C3.67444 4.84506 3.84515 4.78068 3.98334 4.64386C4.12153 4.50704 4.18656 4.34607 4.18656 4.16097C4.18656 3.97586 4.12153 3.81489 3.98334 3.67807C3.84515 3.54125 3.67444 3.47687 3.47121 3.47687C3.26799 3.47687 3.09728 3.54125 2.95908 3.67807C2.82089 3.81489 2.75586 3.97586 2.75586 4.16097C2.75586 4.34607 2.82089 4.51509 2.95908 4.64386C3.09728 4.78068 3.26799 4.84506 3.47121 4.84506Z" fill="#04595A"/>
<path d="M1.60939 4.84506C1.81262 4.84506 1.98333 4.78068 2.12152 4.64386C2.25971 4.50704 2.32475 4.34607 2.32475 4.16097C2.32475 3.97586 2.25971 3.81489 2.12152 3.67807C1.98333 3.54125 1.81262 3.47687 1.60939 3.47687C1.40617 3.47687 1.23546 3.54125 1.09727 3.67807C0.959075 3.81489 0.894043 3.97586 0.894043 4.16097C0.894043 4.34607 0.959075 4.51509 1.09727 4.64386C1.23546 4.78068 1.40617 4.84506 1.60939 4.84506Z" fill="#04595A"/>
<path d="M24.322 4.84506C24.5252 4.84506 24.6959 4.78068 24.8341 4.64386C24.9723 4.50704 25.0373 4.34607 25.0373 4.16097C25.0373 3.97586 24.9723 3.81489 24.8341 3.67807C24.6959 3.54125 24.5252 3.47687 24.322 3.47687C24.1187 3.47687 23.9562 3.54125 23.818 3.67807C23.6798 3.81489 23.6147 3.97586 23.6147 4.16097C23.6147 4.34607 23.6798 4.51509 23.818 4.64386C23.9562 4.78068 24.1269 4.84506 24.322 4.84506Z" fill="#04595A"/>
<path d="M42.2869 2.24548H40.9375V9.32791H39.1979C38.7915 9.32791 38.5151 9.22328 38.3688 9.02207C38.2224 8.82087 38.1493 8.55528 38.1493 8.2414V2.24548H36.7755V8.71624C36.7755 8.90135 36.743 9.05427 36.6861 9.16694C36.6291 9.27962 36.5072 9.33595 36.3365 9.33595H26.5167C26.1265 9.33595 25.8501 9.32791 25.6794 9.30376C26.1915 8.82892 26.5329 8.39431 26.7036 7.98386C26.8743 7.5734 26.9638 7.20318 26.9638 6.8732C26.9638 6.72029 26.915 6.56737 26.8174 6.40641C26.7199 6.24544 26.5817 6.10057 26.3866 5.96376C26.1996 5.82694 25.9558 5.72231 25.6631 5.64183C25.3705 5.56135 25.0209 5.5211 24.6145 5.5211C24.3544 5.5211 24.0861 5.54525 23.826 5.60159C23.5658 5.65792 23.3057 5.73036 23.0537 5.82694C22.8017 5.92351 22.566 6.02814 22.3465 6.15691C22.127 6.28568 21.9238 6.41445 21.7531 6.55932L21.8019 7.50096C21.8344 7.59754 21.8913 7.71827 21.9807 7.86313C22.0701 8.008 22.1677 8.16092 22.2896 8.32188C22.4115 8.48284 22.5416 8.64381 22.6798 8.81282C22.818 8.98183 22.9643 9.1267 23.1106 9.26352C23.0131 9.28767 22.8993 9.30376 22.7611 9.31986C22.6229 9.33595 22.4684 9.344 22.2977 9.344H4.86102V7.93557C4.86102 7.58949 4.80412 7.27561 4.69844 6.98588C4.59277 6.69614 4.43831 6.4547 4.23509 6.24544C4.03187 6.03619 3.788 5.87523 3.51161 5.76255C3.23522 5.64988 2.91819 5.59354 2.57677 5.59354C2.20284 5.59354 1.86142 5.66597 1.55252 5.81084C1.24362 5.95571 0.975362 6.15691 0.755879 6.40641C0.536396 6.6559 0.357558 6.95369 0.227494 7.28366C0.0974303 7.62169 0.0405273 7.96776 0.0405273 8.33798C0.0405273 8.62771 0.0893013 8.91745 0.186849 9.19914C0.284397 9.48082 0.438848 9.73837 0.650202 9.96371C0.861556 10.1891 1.13794 10.3661 1.47936 10.5029C1.82078 10.6398 2.22723 10.7122 2.71497 10.7122H22.314C22.6554 10.7122 23.0049 10.672 23.3545 10.5915C23.704 10.511 24.0373 10.3903 24.3381 10.2132C24.5251 10.3259 24.8015 10.4305 25.1591 10.5432C25.5168 10.6559 25.9639 10.7122 26.4923 10.7122H36.4015C36.7348 10.7122 37.0275 10.6478 37.2713 10.519C37.5152 10.3903 37.7103 10.1971 37.8404 9.93152C37.9542 10.1247 38.1086 10.3098 38.32 10.4708C38.5313 10.6317 38.8077 10.7122 39.1491 10.7122H42.2869V2.24548ZM3.50348 9.32791H2.66619C2.49548 9.32791 2.34103 9.30376 2.18658 9.26352C2.03213 9.22328 1.89394 9.15085 1.772 9.05427C1.65007 8.95769 1.56065 8.82892 1.48749 8.676C1.41433 8.52309 1.38181 8.33798 1.38181 8.11263C1.38181 7.92752 1.41433 7.75851 1.47936 7.60559C1.54439 7.45267 1.62568 7.33195 1.73136 7.21928C1.83704 7.11465 1.95084 7.03417 2.08091 6.96978C2.21097 6.91344 2.34916 6.88125 2.49548 6.88125C2.82877 6.88125 3.08077 7.00197 3.25148 7.24342C3.42219 7.48487 3.51161 7.83094 3.51161 8.27359V9.32791H3.50348ZM25.5737 7.50901C25.5087 7.65388 25.4193 7.79875 25.3136 7.94361C25.1998 8.09653 25.0697 8.2414 24.9153 8.37822C24.7608 8.51504 24.5982 8.64381 24.4194 8.74039C24.2649 8.63576 24.1186 8.51504 23.9723 8.36212C23.826 8.20921 23.6878 8.05629 23.5577 7.90337C23.4277 7.74241 23.322 7.59754 23.2326 7.46877C23.1431 7.33195 23.0862 7.23537 23.0537 7.16294C23.2326 7.05026 23.4764 6.96173 23.7691 6.89735C24.0617 6.83296 24.3381 6.80077 24.6064 6.80077C24.7364 6.80077 24.8584 6.80077 24.9803 6.81687C25.1022 6.82491 25.216 6.84906 25.3217 6.8732C25.4274 6.89735 25.5087 6.92954 25.5737 6.96978C25.6387 7.01002 25.6713 7.06636 25.6713 7.13075C25.6713 7.24342 25.6387 7.36414 25.5737 7.50901Z" fill="#04595A"/>
<path d="M3.98334 18.7041C4.12153 18.5673 4.18656 18.4063 4.18656 18.2212C4.18656 18.0361 4.12153 17.8751 3.98334 17.7383C3.84515 17.6015 3.67444 17.5371 3.47121 17.5371C3.26799 17.5371 3.09728 17.6015 2.95908 17.7383C2.82089 17.8751 2.75586 18.0361 2.75586 18.2212C2.75586 18.4063 2.82089 18.5753 2.95908 18.7041C3.09728 18.8409 3.26799 18.9053 3.47121 18.9053C3.67444 18.9053 3.84515 18.8409 3.98334 18.7041Z" fill="#04595A"/>
<path d="M1.60939 18.9053C1.81262 18.9053 1.98333 18.8409 2.12152 18.7041C2.25971 18.5673 2.32475 18.4063 2.32475 18.2212C2.32475 18.0361 2.25971 17.8751 2.12152 17.7383C1.98333 17.6015 1.81262 17.5371 1.60939 17.5371C1.40617 17.5371 1.23546 17.6015 1.09727 17.7383C0.959075 17.8751 0.894043 18.0361 0.894043 18.2212C0.894043 18.4063 0.959075 18.5753 1.09727 18.7041C1.23546 18.8409 1.40617 18.9053 1.60939 18.9053Z" fill="#04595A"/>
<path d="M0.227494 21.3278C0.0974303 21.6658 0.0405273 22.0119 0.0405273 22.3821C0.0405273 22.6719 0.0893013 22.9616 0.186849 23.2433C0.284397 23.525 0.438848 23.7825 0.650202 24.0079C0.861556 24.2332 1.13794 24.4103 1.47936 24.5471C1.82078 24.6839 2.22723 24.7564 2.71497 24.7564H12.6486C12.9819 24.7564 13.2664 24.6839 13.5103 24.531C13.7541 24.3781 13.9411 24.193 14.0793 23.9676C14.1931 24.1608 14.3476 24.3459 14.5589 24.5069C14.7703 24.6759 15.0467 24.7564 15.3962 24.7564H20.6882V20.0562H19.3306V23.3882H15.4287C15.0304 23.3882 14.754 23.2835 14.6077 23.0823C14.4532 22.8811 14.3801 22.6155 14.3801 22.3017V20.0562H13.0225V22.7684C13.0225 22.9536 12.99 23.1065 12.9331 23.2191C12.8762 23.3318 12.7543 23.3882 12.5836 23.3882H4.86102V21.9797C4.86102 21.6337 4.80412 21.3198 4.69844 21.03C4.59277 20.7403 4.43832 20.4989 4.23509 20.2896C4.03187 20.0803 3.788 19.9194 3.51161 19.8067C3.23522 19.694 2.91819 19.6377 2.57677 19.6377C2.20284 19.6377 1.86142 19.7101 1.55252 19.855C1.24362 19.9999 0.975362 20.2011 0.755879 20.4506C0.536396 20.7001 0.357558 20.9978 0.227494 21.3278ZM1.47936 21.6658C1.54439 21.5129 1.62568 21.3922 1.73136 21.2795C1.83704 21.1749 1.95084 21.0944 2.08091 21.03C2.21097 20.9737 2.34916 20.9415 2.49548 20.9415C2.82877 20.9415 3.08077 21.0622 3.25148 21.3037C3.42219 21.5451 3.51161 21.8912 3.51161 22.3338V23.3882H2.67432C2.50361 23.3882 2.34916 23.364 2.19471 23.3238C2.04026 23.2835 1.90207 23.2111 1.78013 23.1145C1.6582 23.0179 1.56878 22.8892 1.49562 22.7363C1.42246 22.5833 1.38994 22.3982 1.38994 22.1729C1.38994 21.9878 1.42246 21.8188 1.48749 21.6658H1.47936Z" fill="#04595A"/>
<path d="M14.1036 25.7543C13.9654 25.8831 13.9004 26.044 13.9004 26.2372C13.9004 26.4304 13.9654 26.5994 14.1036 26.7281C14.2418 26.8569 14.4125 26.9213 14.6157 26.9213C14.819 26.9213 14.9897 26.8569 15.1279 26.7281C15.2661 26.5994 15.3311 26.4304 15.3311 26.2372C15.3311 26.044 15.2661 25.8831 15.1279 25.7543C14.9897 25.6255 14.819 25.5612 14.6157 25.5612C14.4125 25.5612 14.2418 25.6255 14.1036 25.7543Z" fill="#04595A"/>
<path d="M12.2584 25.7543C12.1202 25.8831 12.0552 26.044 12.0552 26.2372C12.0552 26.4304 12.1202 26.5994 12.2584 26.7281C12.3966 26.8569 12.5673 26.9213 12.7705 26.9213C12.9738 26.9213 13.1445 26.8569 13.2827 26.7281C13.4208 26.5994 13.4859 26.4304 13.4859 26.2372C13.4859 26.044 13.4208 25.8831 13.2827 25.7543C13.1445 25.6255 12.9738 25.5612 12.7705 25.5612C12.5673 25.5612 12.3966 25.6255 12.2584 25.7543Z" fill="#04595A"/>
<path d="M20.3224 25.7543C20.1842 25.6255 20.0135 25.5612 19.8184 25.5612C19.6233 25.5612 19.4444 25.6255 19.3063 25.7543C19.1681 25.8831 19.103 26.044 19.103 26.2372C19.103 26.4304 19.1681 26.5994 19.3063 26.7281C19.4444 26.8569 19.6152 26.9213 19.8184 26.9213C20.0216 26.9213 20.1842 26.8569 20.3224 26.7281C20.4606 26.5994 20.5256 26.4304 20.5256 26.2372C20.5256 26.044 20.4606 25.8831 20.3224 25.7543Z" fill="#04595A"/>
<path d="M37.7753 23.3881H35.426C35.0358 23.3881 34.7594 23.3801 34.5887 23.3559C35.1009 22.8811 35.4423 22.4465 35.613 22.036C35.7837 21.6256 35.8731 21.2554 35.8731 20.9254C35.8731 20.7725 35.8243 20.6196 35.7268 20.4586C35.6292 20.2976 35.491 20.1528 35.2959 20.0159C35.109 19.8791 34.8651 19.7745 34.5725 19.694C34.2798 19.6135 33.9303 19.5733 33.5238 19.5733C33.2637 19.5733 32.9954 19.5974 32.7353 19.6538C32.4752 19.7101 32.2151 19.7825 31.9631 19.8791C31.7111 19.9757 31.4753 20.0803 31.2558 20.2091C31.0364 20.3379 30.8331 20.4666 30.6624 20.6115L30.7112 21.5531C30.7437 21.6497 30.8006 21.7705 30.89 21.9153C30.9795 22.0602 31.077 22.2131 31.1989 22.3741C31.3209 22.535 31.4509 22.696 31.5891 22.865C31.7273 23.034 31.8736 23.1789 32.02 23.3157C31.9224 23.3399 31.8086 23.3559 31.6704 23.372C31.5322 23.3881 31.3778 23.3962 31.2071 23.3962H25.785C25.3704 23.3962 25.0941 23.2916 24.9477 23.0904C24.8014 22.8892 24.7283 22.6236 24.7283 22.3097V20.0642H23.3707V24.4666C23.3707 24.8932 23.3138 25.2151 23.1919 25.4324C23.0699 25.6497 22.8342 25.7624 22.4846 25.7624C22.3952 25.7624 22.2977 25.7624 22.192 25.7463C22.0863 25.7382 21.9807 25.7221 21.8912 25.706L21.5579 25.6336L21.4116 26.9776C21.4604 26.9937 21.5092 27.0018 21.5579 27.0098C21.6067 27.0098 21.6636 27.0259 21.7287 27.034C21.8262 27.0501 21.94 27.0662 22.0701 27.0742C22.2001 27.0823 22.3383 27.0903 22.4846 27.0903C22.8505 27.0903 23.1756 27.0259 23.452 26.8972C23.7284 26.7684 23.9641 26.5913 24.1592 26.3579C24.3543 26.1245 24.4925 25.8589 24.5901 25.5531C24.6876 25.2473 24.7364 24.9173 24.7364 24.5632V24.2413C24.8583 24.3781 25.0128 24.4907 25.1997 24.5954C25.3867 24.7 25.5981 24.7483 25.8338 24.7483H31.2233C31.5647 24.7483 31.9143 24.708 32.2638 24.6276C32.6134 24.5471 32.9467 24.4264 33.2474 24.2493C33.4344 24.362 33.7108 24.4666 34.0685 24.5793C34.4261 24.692 34.8732 24.7483 35.4016 24.7483H39.1247V16.2977H37.7753V23.3801V23.3881ZM34.4912 21.5692C34.4261 21.7141 34.3367 21.859 34.231 22.0038C34.1172 22.1568 33.9872 22.3016 33.8327 22.4385C33.6783 22.5753 33.5157 22.704 33.3369 22.8006C33.1824 22.696 33.0361 22.5753 32.8898 22.4224C32.7434 22.2694 32.6053 22.1165 32.4752 21.9636C32.3451 21.8026 32.2394 21.6578 32.15 21.529C32.0606 21.3922 32.0037 21.2956 31.9712 21.2232C32.15 21.1105 32.3939 21.022 32.6865 20.9576C32.9792 20.8932 33.2556 20.861 33.5238 20.861C33.6539 20.861 33.7758 20.861 33.8978 20.8771C34.0197 20.8851 34.1335 20.9093 34.2392 20.9334C34.3449 20.9576 34.4261 20.9898 34.4912 21.03C34.5562 21.0703 34.5887 21.1266 34.5887 21.191C34.5887 21.3037 34.5562 21.4244 34.4912 21.5692Z" fill="#04595A"/>
<path d="M42.4334 16.3057H41.084V24.7563H42.4334V16.3057Z" fill="#04595A"/>
<path d="M2.89414 31.7986C2.75595 31.9354 2.69092 32.0963 2.69092 32.2815C2.69092 32.4666 2.75595 32.6356 2.89414 32.7643C3.03234 32.9012 3.20304 32.9655 3.40627 32.9655C3.60949 32.9655 3.7802 32.9012 3.9184 32.7643C4.05659 32.6275 4.12162 32.4666 4.12162 32.2815C4.12162 32.0963 4.05659 31.9354 3.9184 31.7986C3.7802 31.6617 3.60949 31.5974 3.40627 31.5974C3.20304 31.5974 3.03234 31.6617 2.89414 31.7986Z" fill="#04595A"/>
<path d="M4.20269 34.3498C3.99947 34.1405 3.7556 33.9796 3.47921 33.8669C3.1947 33.7542 2.88579 33.6979 2.54438 33.6979C2.17044 33.6979 1.82902 33.7703 1.52012 33.9152C1.21122 34.06 0.942964 34.2613 0.715352 34.5107C0.48774 34.7602 0.317031 35.058 0.186967 35.388C0.065032 35.726 0 36.0721 0 36.4423C0 36.732 0.048774 37.0218 0.146322 37.3035C0.24387 37.5852 0.398321 37.8427 0.609675 38.0681C0.821029 38.2934 1.09741 38.4705 1.43883 38.6073C1.78025 38.7441 2.1867 38.8165 2.67444 38.8165H4.82862V36.0399C4.82862 35.6938 4.77172 35.38 4.66604 35.0902C4.56037 34.8005 4.40592 34.559 4.20269 34.3498ZM3.47108 37.4483H2.6338C2.46309 37.4483 2.30864 37.4242 2.15418 37.384C1.99973 37.3437 1.86154 37.2713 1.73961 37.1747C1.61767 37.0781 1.52825 36.9494 1.45509 36.7964C1.38193 36.6435 1.34941 36.4584 1.34941 36.2331C1.34941 36.048 1.38193 35.8789 1.44696 35.726C1.51199 35.5731 1.59328 35.4524 1.69896 35.3397C1.80464 35.2351 1.91844 35.1546 2.04851 35.0902C2.17857 35.0339 2.30864 35.0017 2.44683 35.0017C2.78012 35.0017 3.03212 35.1224 3.21095 35.3639C3.38979 35.6053 3.47108 35.9514 3.47108 36.394V37.4483Z" fill="#04595A"/>
<path d="M1.04063 31.7986C0.902434 31.9354 0.837402 32.0963 0.837402 32.2815C0.837402 32.4666 0.902434 32.6356 1.04063 32.7643C1.17882 32.9012 1.34953 32.9655 1.55275 32.9655C1.75598 32.9655 1.92669 32.9012 2.06488 32.7643C2.20307 32.6275 2.26811 32.4666 2.26811 32.2815C2.26811 32.0963 2.20307 31.9354 2.06488 31.7986C1.92669 31.6617 1.75598 31.5974 1.55275 31.5974C1.34953 31.5974 1.17882 31.6617 1.04063 31.7986Z" fill="#04595A"/>
<path d="M17.9083 34.5671C17.6807 34.3015 17.3961 34.1003 17.0547 33.9474C16.7133 33.7945 16.3231 33.722 15.8841 33.722C15.3964 33.722 14.9249 33.8428 14.4534 34.0842C13.982 34.3257 13.5836 34.6637 13.2504 35.0983V34.1084H11.8766V37.4484H9.87682C9.46224 37.4484 9.18585 37.3437 9.03953 37.1425C8.89321 36.9413 8.82005 36.6757 8.82005 36.3619V34.1164H7.46251V38.5188C7.46251 38.9453 7.4056 39.2673 7.28367 39.4846C7.16173 39.7019 6.92599 39.8145 6.57645 39.8145C6.48703 39.8145 6.38948 39.8145 6.2838 39.7984C6.17812 39.7904 6.07245 39.7743 5.98303 39.7582L5.64974 39.6858L5.50342 41.0298C5.55219 41.0459 5.60097 41.054 5.64974 41.062C5.69851 41.062 5.75542 41.0781 5.82045 41.0862C5.918 41.1022 6.0318 41.1183 6.16187 41.1264C6.29193 41.1344 6.43012 41.1425 6.57645 41.1425C6.94225 41.1425 7.26741 41.0781 7.5438 40.9493C7.82018 40.8206 8.05592 40.6435 8.25102 40.4101C8.44611 40.1767 8.58431 39.9111 8.68186 39.6053C8.7794 39.2995 8.82818 38.9695 8.82818 38.6154V38.2934C8.95011 38.4302 9.10456 38.5429 9.29153 38.6475C9.4785 38.7522 9.68985 38.8005 9.92559 38.8005H18.6155V36.6677C18.6155 36.2411 18.5586 35.8468 18.4448 35.4846C18.331 35.1224 18.1603 34.8086 17.9245 34.543L17.9083 34.5671ZM17.2254 37.4484H13.2666C13.3154 37.0781 13.4211 36.7482 13.5836 36.4423C13.7462 36.1446 13.9413 35.887 14.1771 35.6778C14.4047 35.4685 14.6567 35.3075 14.9249 35.1949C15.1932 35.0822 15.4614 35.0259 15.7216 35.0259C15.9411 35.0259 16.1524 35.058 16.3394 35.1144C16.5263 35.1707 16.6889 35.2673 16.819 35.4041C16.949 35.5409 17.0547 35.718 17.1198 35.9433C17.1929 36.1687 17.2254 36.4423 17.2254 36.7723V37.4484Z" fill="#04595A"/>
<path d="M37.6453 37.4483H36.4178C36.4178 37.4483 36.3528 37.4403 36.3121 37.4403H35.8813C35.6456 37.4403 35.4505 37.4081 35.3123 37.3357C35.1741 37.2632 35.0684 37.1827 34.9953 37.0862C34.9221 36.9896 34.8814 36.885 34.8571 36.7723C34.8408 36.6596 34.8245 36.5711 34.8245 36.4986C34.8245 35.6214 34.6213 34.9453 34.2067 34.4544C33.8003 33.9715 33.2069 33.7301 32.4346 33.7301C32.0851 33.7301 31.7599 33.7944 31.4591 33.9313C31.1584 34.0681 30.8982 34.2451 30.6788 34.4785C30.4593 34.7119 30.2886 34.9856 30.1666 35.2995C30.0447 35.6133 29.9797 35.9594 29.9797 36.3377C29.9797 36.563 29.9634 36.7481 29.9228 36.893C29.8821 37.0379 29.8252 37.1505 29.7602 37.231C29.6951 37.3115 29.6139 37.3678 29.5244 37.392C29.435 37.4161 29.3456 37.4322 29.2643 37.4322H28.801C28.801 37.4322 28.7359 37.4322 28.7115 37.4403H27.8499C27.4597 37.4403 27.1833 37.4322 27.0126 37.4081C27.5247 36.9332 27.8661 36.4986 28.0368 36.0882C28.2075 35.6777 28.297 35.3075 28.297 34.9775C28.297 34.8246 28.2482 34.6717 28.1506 34.5107C28.0531 34.3498 27.9149 34.2049 27.7198 34.0681C27.5328 33.9313 27.289 33.8266 26.9963 33.7462C26.7037 33.6657 26.3541 33.6254 25.9477 33.6254C25.6875 33.6254 25.4193 33.6496 25.1592 33.7059C24.899 33.7623 24.6389 33.8347 24.3869 33.9313C24.1349 34.0278 23.8992 34.1325 23.6797 34.2612C23.4602 34.39 23.257 34.5188 23.0863 34.6636L23.135 35.6053C23.1676 35.7019 23.2245 35.8226 23.3139 35.9675C23.4033 36.1123 23.5008 36.2652 23.6228 36.4262C23.7447 36.5872 23.8748 36.7481 24.013 36.9171C24.1512 37.0862 24.2975 37.231 24.4438 37.3678C24.3463 37.392 24.2325 37.4081 24.0943 37.4242C23.9561 37.4403 23.8016 37.4483 23.6309 37.4483H21.6637V30.3659H20.3062V38.8165H23.6309C23.9723 38.8165 24.3219 38.7763 24.6714 38.6958C25.021 38.6153 25.3543 38.4946 25.655 38.3175C25.842 38.4302 26.1184 38.5348 26.4761 38.6475C26.8337 38.7602 27.2808 38.8165 27.8092 38.8165H29.3212C29.5813 38.8165 29.8171 38.7441 30.0284 38.5912C30.2317 38.4383 30.3942 38.2532 30.508 38.0198C30.695 38.2773 30.947 38.4785 31.2397 38.6395C31.5404 38.8004 31.9144 38.8809 32.3696 38.8809C32.5566 38.8809 32.7435 38.8729 32.9305 38.8568C33.1093 38.8407 33.2882 38.8004 33.4589 38.7441C33.6296 38.6878 33.7922 38.5912 33.9466 38.4624C34.1092 38.3336 34.2555 38.1646 34.4018 37.9393C34.5238 38.1968 34.7026 38.4061 34.9546 38.567C35.2066 38.736 35.4993 38.8165 35.8325 38.8165H38.9785V30.3659H37.629V37.4483H37.6453ZM26.915 35.6294C26.85 35.7743 26.7606 35.9192 26.6549 36.064C26.5411 36.217 26.411 36.3618 26.2566 36.4986C26.1021 36.6355 25.9395 36.7642 25.7607 36.8608C25.6063 36.7562 25.4599 36.6355 25.3136 36.4825C25.1673 36.3296 25.0291 36.1767 24.899 36.0238C24.769 35.8628 24.6633 35.718 24.5739 35.5892C24.4845 35.4524 24.4276 35.3558 24.395 35.2834C24.5739 35.1707 24.8177 35.0822 25.1104 35.0178C25.403 34.9534 25.6794 34.9212 25.9477 34.9212C26.0777 34.9212 26.1997 34.9212 26.3216 34.9373C26.4435 34.9453 26.5574 34.9695 26.663 34.9936C26.7687 35.0178 26.85 35.05 26.915 35.0902C26.9801 35.1304 27.0126 35.1868 27.0126 35.2512C27.0126 35.3638 26.9801 35.4846 26.915 35.6294ZM33.28 37.1747C33.1012 37.4 32.8248 37.5127 32.4427 37.5127C32.0607 37.5127 31.7843 37.4 31.6055 37.1747C31.4266 36.9493 31.3372 36.6757 31.3372 36.3457C31.3372 36.1445 31.3697 35.9594 31.4266 35.7904C31.4835 35.6294 31.5648 35.4846 31.6624 35.3638C31.7599 35.2431 31.8818 35.1546 32.0119 35.0902C32.1501 35.0258 32.2883 34.9936 32.4427 34.9936C32.5891 34.9936 32.7273 35.0258 32.8573 35.0902C32.9955 35.1546 33.1093 35.2431 33.2069 35.3638C33.3044 35.4846 33.3857 35.6214 33.4507 35.7904C33.5158 35.9514 33.5483 36.1365 33.5483 36.3457C33.5483 36.6757 33.4589 36.9493 33.28 37.1747Z" fill="#04595A"/>
<path d="M42.303 30.3659H40.9536V38.8165H42.303V30.3659Z" fill="#04595A"/>
</g>
<defs>
<clipPath id="clip0_257_598">
<rect width="122" height="42.2933" fill="white"/>
</clipPath>
</defs>
</svg>
