 <svg className="w-6 h-6 animate-pulse" fill="green" viewBox="0 0 80 80" stroke="currentColor">
              <path strokeLinecap="round" strokeLinejoin="round" strokeWidth={2} d="M 55.00,24.00
                  C 48.64,28.39 31.69,35.07 24.00,37.07
                    20.27,37.93 13.68,38.75 10.10,37.07
                    3.41,34.14 0.97,16.25 15.00,13.20
                    25.97,10.82 15.84,21.42 20.74,26.40
                    23.84,29.56 31.44,26.21 35.00,25.00
                    35.00,25.00 62.00,12.81 62.00,12.81
                    64.44,11.80 69.99,9.14 72.38,11.04
                    74.63,12.82 72.70,16.16 71.61,18.00
                    71.61,18.00 59.87,35.00 59.87,35.00
                    58.41,37.66 51.25,50.80 57.09,46.64
                    57.25,48.17 63.26,59.48 58.26,66.95
                    53.90,73.39 43.06,76.73 40.32,66.95
                    38.17,59.36 41.45,49.97 44.43,43.00
                    49.16,31.93 51.40,31.91 55.00,24.00 Z" />
</svg>
